<?xml version="1.0" encoding="UTF-8"?>
<svg id="Layer_1" data-name="Layer 1" xmlns="http://www.w3.org/2000/svg" viewBox="0 0 330.66 227.2">
  <defs>
    <style>
      .cls-1 {
        fill: #ff2424;
      }
    </style>
  </defs>
  <path class="cls-1" d="m117.51,111.3l-10.59-6.12c-.23-.13-.47-.19-.7-.19-.73,0-1.4.59-1.4,1.4v12.23c0,.82.67,1.41,1.4,1.41.23,0,.47-.06.7-.19l4.26-2.46-1.4-2.66-1.96,1.13v-6.69l5.79,3.35-2.1,1.21,1.4,2.66,4.6-2.66c.93-.54.93-1.88,0-2.42"/>
  <g>
    <path d="m132.03,112.42c0,3.44-2.55,6.07-5.9,6.07h-4.86v-12.14h4.86c3.35,0,5.9,2.64,5.9,6.07m-2.67,0c0-2.08-1.32-3.4-3.23-3.4h-2.08v6.8h2.08c1.91,0,3.23-1.32,3.23-3.4"/>
    <path d="m138.36,109.65v2.95c-1.08-.17-2.6.26-2.6,1.98v3.92h-2.6v-8.68h2.6v1.54c.35-1.16,1.51-1.72,2.6-1.72"/>
    <path d="m147.86,109.82v8.67h-2.6v-.82c-.57.66-1.42,1.06-2.58,1.06-2.27,0-4.15-2-4.15-4.58s1.87-4.58,4.15-4.58c1.16,0,2.01.4,2.58,1.06v-.82h2.6Zm-2.6,4.34c0-1.3-.87-2.12-2.06-2.12s-2.07.81-2.07,2.12.87,2.12,2.07,2.12,2.06-.81,2.06-2.12"/>
    <path d="m156.07,115.89c0,2-1.74,2.85-3.61,2.85-1.74,0-3.05-.66-3.73-2.06l2.26-1.28c.23.66.71,1.02,1.48,1.02.62,0,.94-.19.94-.54,0-.95-4.27-.45-4.27-3.45,0-1.89,1.6-2.85,3.4-2.85,1.4,0,2.65.62,3.38,1.86l-2.22,1.2c-.24-.45-.59-.76-1.16-.76-.45,0-.73.17-.73.49,0,.99,4.27.33,4.27,3.54"/>
    <path d="m160.05,112.32v3.07c0,.75.64.82,1.79.75v2.36c-3.4.35-4.39-.68-4.39-3.11v-3.07h-1.39v-2.5h1.39v-1.65l2.6-.78v2.43h1.79v2.5h-1.79Z"/>
    <path d="m162.71,107.5c0-.85.71-1.56,1.56-1.56s1.56.71,1.56,1.56-.71,1.56-1.56,1.56-1.56-.71-1.56-1.56m.26,2.32h2.6v8.68h-2.6v-8.68Z"/>
    <path d="m166.7,114.16c0-2.58,1.96-4.58,4.6-4.58,1.68,0,3.17.89,3.92,2.22l-2.27,1.32c-.29-.61-.92-.97-1.68-.97-1.13,0-1.96.82-1.96,2.01s.83,2.01,1.96,2.01c.76,0,1.41-.36,1.68-.97l2.27,1.3c-.75,1.35-2.22,2.24-3.92,2.24-2.64,0-4.6-2-4.6-4.58"/>
    <path d="m186.84,112.42c0,3.44-2.55,6.07-5.9,6.07h-4.86v-12.14h4.86c3.35,0,5.9,2.64,5.9,6.07m-2.67,0c0-2.08-1.32-3.4-3.23-3.4h-2.08v6.8h2.08c1.91,0,3.23-1.32,3.23-3.4"/>
    <path d="m187.7,107.5c0-.85.71-1.56,1.56-1.56s1.56.71,1.56,1.56-.71,1.56-1.56,1.56-1.56-.71-1.56-1.56m.26,2.32h2.6v8.68h-2.6v-8.68Z"/>
    <path d="m201.02,109.82v8.24c0,2.91-2.27,4.15-4.58,4.15-1.8,0-3.31-.68-4.11-2.1l2.22-1.28c.33.61.83,1.09,1.98,1.09,1.21,0,1.96-.62,1.96-1.86v-.8c-.57.71-1.4,1.13-2.53,1.13-2.46,0-4.27-2.01-4.27-4.41s1.81-4.41,4.27-4.41c1.13,0,1.96.42,2.53,1.13v-.89h2.53Zm-2.53,4.16c0-1.2-.87-2.01-2.1-2.01s-2.1.82-2.1,2.01.87,2.01,2.1,2.01,2.1-.82,2.1-2.01"/>
    <path d="m202.32,107.5c0-.85.71-1.56,1.56-1.56s1.56.71,1.56,1.56-.71,1.56-1.56,1.56-1.56-.71-1.56-1.56m.26,2.32h2.6v8.68h-2.6v-8.68Z"/>
    <path d="m210.04,112.32v3.07c0,.75.64.82,1.79.75v2.36c-3.4.35-4.39-.68-4.39-3.11v-3.07h-1.39v-2.5h1.39v-1.65l2.6-.78v2.43h1.79v2.5h-1.79Z"/>
    <path d="m221.68,109.82v8.67h-2.6v-.82c-.57.66-1.42,1.06-2.59,1.06-2.27,0-4.15-2-4.15-4.58s1.87-4.58,4.15-4.58c1.16,0,2.01.4,2.59,1.06v-.82h2.6Zm-2.6,4.34c0-1.3-.87-2.12-2.06-2.12s-2.07.81-2.07,2.12.87,2.12,2.07,2.12,2.06-.81,2.06-2.12"/>
    <rect x="223.24" y="105.83" width="2.6" height="12.67"/>
  </g>
</svg>